<svg width="207" height="206" viewBox="0 0 207 206" fill="none" xmlns="http://www.w3.org/2000/svg">
<path d="M1 100.501H52.164L69.233 33.364L93.9982 148.631L112.615 65.3777L126.976 131.682L151.74 1L161.458 100.501H206" stroke="#C90606" stroke-width="2" stroke-linecap="round" stroke-linejoin="round"/>
<path d="M35.8689 183.057V173.2H27.5787V183.057H25.6306V161.476H27.5787V171.349H35.8689V161.476H37.8169V183.057H35.8689ZM42.785 183.057V161.476H54.9713V163.328H44.7331V171.349H53.0234V173.2H44.7331V181.206H54.9713V183.057H42.785ZM66.8254 178.03H59.9698L58.5503 183.057H56.5267L62.8691 161.476H63.8959L70.2684 183.057H68.26L66.8254 178.03ZM60.4982 176.18H66.312L63.4579 166.232L63.3976 165.435L63.3372 166.232L60.4982 176.18ZM72.7299 183.057V161.476H74.6778V181.206H82.9681V183.057H72.7299ZM90.5034 163.328V183.057H88.5554V163.328H83.391V161.476H95.6679V163.328H90.5034ZM109.017 183.057V173.2H100.727V183.057H98.7786V161.476H100.727V171.349H109.017V161.476H110.965V183.057H109.017ZM114.996 173.621V171.875H120.781V173.621H114.996ZM136.998 169.467C136.998 170.2 136.858 170.887 136.576 171.529C136.304 172.171 135.926 172.733 135.443 173.215C134.96 173.697 134.391 174.078 133.737 174.358C133.092 174.63 132.403 174.765 131.668 174.765H126.761V183.057H124.812V161.476H131.668C132.403 161.476 133.092 161.617 133.737 161.898C134.391 162.169 134.96 162.545 135.443 163.027C135.926 163.509 136.304 164.075 136.576 164.727C136.858 165.369 136.998 166.056 136.998 166.789V169.467ZM135.051 166.789C135.051 166.307 134.96 165.861 134.779 165.449C134.597 165.028 134.346 164.662 134.023 164.351C133.712 164.029 133.344 163.779 132.921 163.599C132.509 163.418 132.06 163.328 131.577 163.328H126.761V172.914H131.577C132.06 172.914 132.509 172.824 132.921 172.643C133.344 172.463 133.712 172.216 134.023 171.906C134.346 171.595 134.597 171.233 134.779 170.822C134.96 170.401 135.051 169.949 135.051 169.467V166.789ZM140.412 183.057V161.476H142.359V181.206H150.649V183.057H140.412ZM165.615 178.061C165.615 178.794 165.473 179.481 165.192 180.123C164.92 180.765 164.542 181.326 164.059 181.808C163.575 182.29 163.013 182.671 162.368 182.951C161.724 183.223 161.034 183.358 160.299 183.358H158.759C158.024 183.358 157.329 183.223 156.675 182.951C156.03 182.671 155.467 182.29 154.984 181.808C154.501 181.326 154.118 180.765 153.836 180.123C153.565 179.481 153.429 178.794 153.429 178.061V161.476H155.376V178.061C155.376 178.542 155.467 178.994 155.648 179.415C155.829 179.826 156.076 180.193 156.388 180.513C156.71 180.825 157.078 181.07 157.49 181.251C157.913 181.432 158.366 181.522 158.85 181.522H160.209C160.692 181.522 161.139 181.432 161.553 181.251C161.976 181.07 162.343 180.825 162.655 180.513C162.967 180.193 163.214 179.826 163.395 179.415C163.575 178.994 163.666 178.542 163.666 178.061V161.476H165.615V178.061ZM182.134 178.061C182.134 178.794 181.984 179.481 181.682 180.123C181.39 180.765 180.992 181.326 180.489 181.808C179.995 182.29 179.417 182.671 178.752 182.951C178.097 183.223 177.404 183.358 176.669 183.358H175.113C174.378 183.358 173.678 183.223 173.014 182.951C172.36 182.671 171.78 182.29 171.277 181.808C170.784 181.326 170.386 180.765 170.084 180.123C169.793 179.481 169.646 178.794 169.646 178.061V177.203L171.595 176.887V178.061C171.595 178.542 171.691 178.994 171.881 179.415C172.082 179.826 172.349 180.193 172.681 180.513C173.014 180.825 173.397 181.07 173.83 181.251C174.272 181.432 174.736 181.522 175.218 181.522H176.578C177.061 181.522 177.519 181.432 177.952 181.251C178.385 181.07 178.767 180.825 179.099 180.513C179.431 180.193 179.693 179.826 179.885 179.415C180.086 178.994 180.187 178.542 180.187 178.061V177.414C180.187 176.671 180.041 176.055 179.749 175.563C179.457 175.071 179.07 174.654 178.586 174.313C178.103 173.962 177.554 173.666 176.94 173.426C176.336 173.185 175.712 172.944 175.068 172.703C174.423 172.463 173.795 172.197 173.18 171.906C172.576 171.614 172.033 171.254 171.549 170.822C171.066 170.381 170.678 169.844 170.386 169.211C170.095 168.58 169.948 167.802 169.948 166.879V166.472C169.948 165.741 170.084 165.054 170.357 164.412C170.638 163.769 171.02 163.207 171.504 162.726C171.987 162.244 172.551 161.868 173.196 161.597C173.849 161.316 174.544 161.175 175.279 161.175H176.669C177.404 161.175 178.093 161.316 178.738 161.597C179.382 161.868 179.945 162.244 180.428 162.726C180.912 163.207 181.289 163.769 181.561 164.412C181.843 165.054 181.984 165.741 181.984 166.472V167.029L180.035 167.346V166.472C180.035 165.992 179.945 165.545 179.764 165.134C179.583 164.713 179.337 164.346 179.024 164.035C178.712 163.724 178.345 163.478 177.922 163.298C177.509 163.117 177.061 163.027 176.578 163.027H175.37C174.886 163.027 174.434 163.117 174.011 163.298C173.598 163.478 173.231 163.724 172.908 164.035C172.596 164.346 172.349 164.713 172.168 165.134C171.987 165.545 171.897 165.992 171.897 166.472V166.879C171.897 167.572 172.042 168.153 172.335 168.625C172.627 169.096 173.014 169.503 173.498 169.844C173.98 170.175 174.524 170.466 175.128 170.716C175.742 170.958 176.372 171.209 177.016 171.47C177.66 171.72 178.284 172.001 178.888 172.312C179.503 172.613 180.051 172.989 180.534 173.441C181.017 173.882 181.404 174.424 181.697 175.066C181.989 175.708 182.134 176.49 182.134 177.414V178.061Z" fill="black"/>
<path d="M43.4053 202.609C43.4053 202.818 43.3633 203.011 43.2793 203.186C43.1953 203.358 43.0812 203.506 42.9367 203.632C42.7922 203.756 42.6243 203.855 42.4328 203.925C42.2447 203.992 42.0466 204.027 41.8382 204.027H41.4252C41.2168 204.027 41.017 203.987 40.8256 203.909C40.6374 203.829 40.4712 203.719 40.3267 203.581C40.1857 203.443 40.0714 203.28 39.9841 203.095C39.9001 202.909 39.8582 202.712 39.8582 202.503V202.296L40.4779 202.194V202.538C40.4779 202.664 40.5031 202.781 40.5534 202.893C40.6072 203.001 40.6778 203.095 40.7651 203.176C40.8524 203.257 40.9532 203.321 41.0674 203.368C41.1816 203.415 41.3008 203.439 41.4252 203.439H41.8382C41.9626 203.439 42.0818 203.42 42.196 203.384C42.3102 203.347 42.4111 203.294 42.4984 203.226C42.5891 203.156 42.6595 203.071 42.71 202.974C42.7638 202.876 42.7906 202.764 42.7906 202.64C42.7906 202.454 42.7502 202.302 42.6696 202.184C42.5891 202.066 42.4815 201.968 42.3472 201.891C42.2162 201.81 42.0651 201.744 41.8938 201.694C41.7258 201.64 41.5527 201.587 41.3747 201.536C41.1967 201.482 41.022 201.422 40.8507 201.355C40.6827 201.286 40.5317 201.199 40.3973 201.091C40.2663 200.979 40.1605 200.842 40.0798 200.676C39.9992 200.511 39.959 200.305 39.959 200.059C39.959 199.85 39.9992 199.659 40.0798 199.487C40.1605 199.312 40.2697 199.162 40.4073 199.036C40.5451 198.912 40.7046 198.815 40.886 198.748C41.0707 198.678 41.2673 198.641 41.4755 198.641H41.8382C42.0466 198.641 42.2431 198.682 42.4278 198.764C42.6126 198.84 42.7738 198.949 42.9115 199.087C43.0492 199.225 43.1567 199.388 43.234 199.573C43.3146 199.759 43.3549 199.955 43.3549 200.165V200.186L42.7352 200.286V200.13C42.7352 200.004 42.7116 199.888 42.6646 199.78C42.6175 199.669 42.5538 199.573 42.4732 199.492C42.3925 199.411 42.2968 199.347 42.186 199.299C42.0785 199.253 41.9626 199.229 41.8382 199.229H41.4755C41.3512 199.229 41.2337 199.248 41.1228 199.284C41.0153 199.321 40.9213 199.375 40.8406 199.447C40.76 199.514 40.6963 199.597 40.6492 199.694C40.6021 199.792 40.5786 199.904 40.5786 200.028C40.5786 200.207 40.619 200.353 40.6996 200.469C40.7803 200.579 40.886 200.675 41.017 200.751C41.1514 200.829 41.3025 200.896 41.4705 200.949C41.6418 201 41.8148 201.054 41.9894 201.111C42.1675 201.165 42.3405 201.227 42.5085 201.299C42.6798 201.369 42.8309 201.46 42.9619 201.571C43.0962 201.683 43.2037 201.823 43.2843 201.992C43.3649 202.157 43.4053 202.363 43.4053 202.609ZM44.7506 197.498V196.668H45.471V197.498H44.7506ZM44.8009 203.925V198.743H45.4207V203.925H44.8009ZM50.4189 202.609C50.4189 202.818 50.3769 203.011 50.2929 203.186C50.209 203.358 50.0947 203.506 49.9504 203.632C49.8059 203.756 49.6379 203.855 49.4465 203.925C49.2584 203.992 49.0601 204.027 48.8519 204.027H48.4387C48.2305 204.027 48.0306 203.987 47.8392 203.909C47.6511 203.829 47.4848 203.719 47.3404 203.581C47.1993 203.443 47.0851 203.28 46.9977 203.095C46.9138 202.909 46.8718 202.712 46.8718 202.503V202.296L47.4916 202.194V202.538C47.4916 202.664 47.5167 202.781 47.5671 202.893C47.6209 203.001 47.6913 203.095 47.7787 203.176C47.866 203.257 47.9669 203.321 48.081 203.368C48.1952 203.415 48.3145 203.439 48.4387 203.439H48.8519C48.9763 203.439 49.0954 203.42 49.2097 203.384C49.3239 203.347 49.4246 203.294 49.512 203.226C49.6027 203.156 49.6732 203.071 49.7235 202.974C49.7773 202.876 49.8042 202.764 49.8042 202.64C49.8042 202.454 49.7639 202.302 49.6833 202.184C49.6027 202.066 49.4952 201.968 49.3608 201.891C49.2298 201.81 49.0786 201.744 48.9073 201.694C48.7394 201.64 48.5664 201.587 48.3884 201.536C48.2104 201.482 48.0357 201.422 47.8644 201.355C47.6964 201.286 47.5452 201.199 47.4109 201.091C47.2799 200.979 47.1741 200.842 47.0935 200.676C47.0129 200.511 46.9725 200.305 46.9725 200.059C46.9725 199.85 47.0129 199.659 47.0935 199.487C47.1741 199.312 47.2832 199.162 47.421 199.036C47.5587 198.912 47.7183 198.815 47.8997 198.748C48.0844 198.678 48.2809 198.641 48.4892 198.641H48.8519C49.0601 198.641 49.2567 198.682 49.4414 198.764C49.6261 198.84 49.7874 198.949 49.9252 199.087C50.0628 199.225 50.1704 199.388 50.2476 199.573C50.3282 199.759 50.3685 199.955 50.3685 200.165V200.186L49.7488 200.286V200.13C49.7488 200.004 49.7253 199.888 49.6782 199.78C49.6312 199.669 49.5674 199.573 49.4867 199.492C49.4061 199.411 49.3105 199.347 49.1996 199.299C49.0921 199.253 48.9763 199.229 48.8519 199.229H48.4892C48.3649 199.229 48.2473 199.248 48.1365 199.284C48.029 199.321 47.9349 199.375 47.8543 199.447C47.7737 199.514 47.7098 199.597 47.6629 199.694C47.6158 199.792 47.5923 199.904 47.5923 200.028C47.5923 200.207 47.6326 200.353 47.7132 200.469C47.7938 200.579 47.8997 200.675 48.0306 200.751C48.165 200.829 48.3162 200.896 48.4841 200.949C48.6554 201 48.8284 201.054 49.0031 201.111C49.1811 201.165 49.3541 201.227 49.522 201.299C49.6933 201.369 49.8445 201.46 49.9755 201.571C50.1099 201.683 50.2174 201.823 50.298 201.992C50.3786 202.157 50.4189 202.363 50.4189 202.609ZM53.4874 203.925C53.2993 203.925 53.1213 203.89 52.9533 203.818C52.7887 203.748 52.6442 203.65 52.52 203.525C52.399 203.401 52.3016 203.256 52.2277 203.09C52.1572 202.925 52.122 202.748 52.122 202.559V199.335H51.1948V198.743H52.122V197.498L52.7416 197.397V198.743H54.0517V199.335H52.7416V202.589C52.7416 202.694 52.7602 202.791 52.7971 202.882C52.8374 202.97 52.8911 203.048 52.9583 203.116C53.0255 203.183 53.1044 203.237 53.1951 203.277C53.2858 203.315 53.3833 203.333 53.4874 203.333H54.0517V203.925H53.4874ZM58.6418 202.503C58.6418 202.712 58.6015 202.909 58.5208 203.095C58.4437 203.28 58.3361 203.443 58.1984 203.581C58.0607 203.719 57.8994 203.829 57.7147 203.909C57.5299 203.987 57.3334 204.027 57.1252 204.027H56.712C56.5038 204.027 56.3073 203.987 56.1225 203.909C55.9378 203.829 55.7765 203.719 55.6389 203.581C55.5011 203.443 55.3919 203.28 55.3113 203.095C55.2341 202.909 55.1955 202.712 55.1955 202.503V200.165C55.1955 199.955 55.2341 199.759 55.3113 199.573C55.3919 199.388 55.5011 199.225 55.6389 199.087C55.7765 198.949 55.9378 198.84 56.1225 198.764C56.3073 198.682 56.5038 198.641 56.712 198.641H57.1252C57.3334 198.641 57.5299 198.682 57.7147 198.764C57.8994 198.84 58.0607 198.949 58.1984 199.087C58.3361 199.225 58.4437 199.388 58.5208 199.573C58.6015 199.759 58.6418 199.955 58.6418 200.165V201.385H55.8152V202.538C55.8152 202.664 55.8386 202.781 55.8857 202.893C55.9327 203.001 55.9965 203.095 56.0772 203.176C56.1578 203.257 56.2518 203.321 56.3593 203.368C56.4702 203.415 56.5878 203.439 56.712 203.439H57.1252C57.2494 203.439 57.3653 203.415 57.4728 203.368C57.5837 203.321 57.6794 203.257 57.76 203.176C57.8407 203.095 57.9045 203.001 57.9515 202.893C57.9985 202.781 58.022 202.664 58.022 202.538V202.194L58.6418 202.296V202.503ZM58.022 200.13C58.022 200.004 57.9985 199.888 57.9515 199.78C57.9045 199.669 57.8407 199.573 57.76 199.492C57.6794 199.411 57.5837 199.347 57.4728 199.299C57.3653 199.253 57.2494 199.229 57.1252 199.229H56.712C56.5878 199.229 56.4702 199.253 56.3593 199.299C56.2518 199.347 56.1578 199.411 56.0772 199.492C55.9965 199.573 55.9327 199.669 55.8857 199.78C55.8386 199.888 55.8152 200.004 55.8152 200.13V200.899H58.022V200.13ZM65.3279 203.925V200.13C65.3279 200.004 65.3044 199.888 65.2574 199.78C65.2104 199.669 65.1465 199.573 65.0659 199.492C64.9853 199.411 64.8896 199.347 64.7787 199.299C64.6712 199.253 64.5553 199.229 64.4311 199.229H64.1237C63.9995 199.229 63.8818 199.253 63.771 199.299C63.6636 199.347 63.5678 199.411 63.4838 199.492C63.4032 199.573 63.3394 199.669 63.2924 199.78C63.2453 199.888 63.2218 200.004 63.2218 200.13V203.925H62.6071V200.13C62.6071 200.004 62.5836 199.888 62.5365 199.78C62.4896 199.669 62.4241 199.573 62.3401 199.492C62.2595 199.411 62.1637 199.347 62.0529 199.299C61.9454 199.253 61.8295 199.229 61.7053 199.229H61.3978C61.2736 199.229 61.156 199.253 61.0451 199.299C60.9377 199.347 60.8436 199.411 60.763 199.492C60.6824 199.573 60.6186 199.669 60.5715 199.78C60.5246 199.888 60.501 200.004 60.501 200.13V203.925H59.8813V198.743H60.0879L60.4254 199.269C60.5666 199.077 60.7429 198.925 60.9544 198.813C61.1695 198.699 61.4029 198.641 61.6548 198.641H61.7053C61.9975 198.641 62.2611 198.714 62.4963 198.859C62.7314 199.004 62.9128 199.197 63.0404 199.436C63.1043 199.318 63.1832 199.21 63.2772 199.112C63.3713 199.014 63.4755 198.931 63.5896 198.864C63.7038 198.794 63.8282 198.74 63.9625 198.702C64.0969 198.662 64.2363 198.641 64.3806 198.641H64.4311C64.6393 198.641 64.8358 198.682 65.0206 198.764C65.2053 198.84 65.3665 198.949 65.5043 199.087C65.642 199.225 65.7494 199.388 65.8267 199.573C65.9073 199.759 65.9477 199.955 65.9477 200.165V203.925H65.3279ZM70.4269 203.925L70.0843 203.409C69.9432 203.594 69.7669 203.745 69.5553 203.86C69.3436 203.971 69.1119 204.027 68.86 204.027H68.7037C68.4955 204.027 68.2989 203.987 68.1142 203.909C67.9295 203.829 67.7682 203.719 67.6306 203.581C67.4928 203.443 67.3836 203.28 67.3031 203.095C67.2258 202.909 67.1872 202.712 67.1872 202.503V202.452C67.1872 202.243 67.2258 202.046 67.3031 201.86C67.3836 201.675 67.4928 201.513 67.6306 201.374C67.7682 201.237 67.9295 201.128 68.1142 201.051C68.2989 200.969 68.4955 200.929 68.7037 200.929H70.0137V200.13C70.0137 200.004 69.9902 199.888 69.9432 199.78C69.8962 199.669 69.8323 199.573 69.7517 199.492C69.6711 199.411 69.5754 199.347 69.4646 199.299C69.357 199.253 69.2412 199.229 69.1169 199.229H68.7541C68.6299 199.229 68.5123 199.253 68.4014 199.299C68.294 199.347 68.1999 199.411 68.1193 199.492C68.0387 199.573 67.9748 199.669 67.9278 199.78C67.8808 199.888 67.8573 200.004 67.8573 200.13V200.317L67.2375 200.216V200.165C67.2375 199.955 67.2761 199.759 67.3534 199.573C67.434 199.388 67.5432 199.225 67.6809 199.087C67.8186 198.949 67.9799 198.84 68.1646 198.764C68.3494 198.682 68.5459 198.641 68.7541 198.641H69.1169C69.3251 198.641 69.5216 198.682 69.7064 198.764C69.8911 198.84 70.0524 198.949 70.1901 199.087C70.3278 199.225 70.4354 199.388 70.5125 199.573C70.5932 199.759 70.6335 199.955 70.6335 200.165V203.925H70.4269ZM70.0137 201.415H68.7037C68.5795 201.415 68.4619 201.439 68.351 201.485C68.2435 201.533 68.1495 201.599 68.0689 201.683C67.9882 201.764 67.9245 201.86 67.8774 201.971C67.8303 202.079 67.8069 202.196 67.8069 202.321V202.538C67.8069 202.664 67.8303 202.781 67.8774 202.893C67.9245 203.001 67.9882 203.095 68.0689 203.176C68.1495 203.257 68.2435 203.321 68.351 203.368C68.4619 203.415 68.5795 203.439 68.7037 203.439H69.1169C69.2412 203.439 69.357 203.415 69.4646 203.368C69.5754 203.321 69.6711 203.257 69.7517 203.176C69.8323 203.095 69.8962 203.001 69.9432 202.893C69.9902 202.781 70.0137 202.664 70.0137 202.538V201.415ZM75.4201 202.609C75.4201 202.818 75.3781 203.011 75.2941 203.186C75.2101 203.358 75.096 203.506 74.9515 203.632C74.8071 203.756 74.6391 203.855 74.4477 203.925C74.2595 203.992 74.0614 204.027 73.8531 204.027H73.4399C73.2317 204.027 73.0318 203.987 72.8404 203.909C72.6523 203.829 72.486 203.719 72.3416 203.581C72.2005 203.443 72.0863 203.28 71.999 203.095C71.915 202.909 71.873 202.712 71.873 202.503V202.296L72.4927 202.194V202.538C72.4927 202.664 72.5179 202.781 72.5683 202.893C72.622 203.001 72.6926 203.095 72.7799 203.176C72.8672 203.257 72.968 203.321 73.0823 203.368C73.1964 203.415 73.3157 203.439 73.4399 203.439H73.8531C73.9774 203.439 74.0966 203.42 74.2108 203.384C74.3251 203.347 74.4258 203.294 74.5132 203.226C74.6039 203.156 74.6744 203.071 74.7248 202.974C74.7785 202.876 74.8054 202.764 74.8054 202.64C74.8054 202.454 74.7651 202.302 74.6845 202.184C74.6039 202.066 74.4964 201.968 74.362 201.891C74.231 201.81 74.0799 201.744 73.9085 201.694C73.7406 201.64 73.5676 201.587 73.3896 201.536C73.2116 201.482 73.0369 201.422 72.8656 201.355C72.6976 201.286 72.5465 201.199 72.412 201.091C72.2811 200.979 72.1753 200.842 72.0946 200.676C72.014 200.511 71.9737 200.305 71.9737 200.059C71.9737 199.85 72.014 199.659 72.0946 199.487C72.1753 199.312 72.2844 199.162 72.4222 199.036C72.5599 198.912 72.7194 198.815 72.9009 198.748C73.0856 198.678 73.282 198.641 73.4904 198.641H73.8531C74.0614 198.641 74.2579 198.682 74.4426 198.764C74.6274 198.84 74.7886 198.949 74.9264 199.087C75.064 199.225 75.1715 199.388 75.2488 199.573C75.3294 199.759 75.3698 199.955 75.3698 200.165V200.186L74.75 200.286V200.13C74.75 200.004 74.7265 199.888 74.6794 199.78C74.6324 199.669 74.5686 199.573 74.488 199.492C74.4073 199.411 74.3117 199.347 74.2007 199.299C74.0933 199.253 73.9774 199.229 73.8531 199.229H73.4904C73.366 199.229 73.2485 199.248 73.1377 199.284C73.0302 199.321 72.9361 199.375 72.8555 199.447C72.7749 199.514 72.7111 199.597 72.664 199.694C72.617 199.792 72.5935 199.904 72.5935 200.028C72.5935 200.207 72.6338 200.353 72.7144 200.469C72.795 200.579 72.9009 200.675 73.0318 200.751C73.1662 200.829 73.3173 200.896 73.4853 200.949C73.6566 201 73.8296 201.054 74.0043 201.111C74.1823 201.165 74.3553 201.227 74.5232 201.299C74.6946 201.369 74.8457 201.46 74.9767 201.571C75.1111 201.683 75.2186 201.823 75.2992 201.992C75.3798 202.157 75.4201 202.363 75.4201 202.609ZM82.2272 203.925L81.8845 203.399C81.7434 203.591 81.5671 203.745 81.3555 203.86C81.1439 203.971 80.9121 204.027 80.6602 204.027H80.5039C80.2957 204.027 80.0992 203.987 79.9145 203.909C79.7297 203.829 79.5685 203.719 79.4308 203.581C79.293 203.443 79.1838 203.28 79.1032 203.095C79.0261 202.909 78.9874 202.712 78.9874 202.503V200.165C78.9874 199.955 79.0261 199.759 79.1032 199.573C79.1838 199.388 79.293 199.225 79.4308 199.087C79.5685 198.949 79.7297 198.84 79.9145 198.764C80.0992 198.682 80.2957 198.641 80.5039 198.641H80.6602C80.8919 198.641 81.107 198.689 81.3051 198.783C81.5033 198.878 81.673 199.009 81.814 199.178V196.668H82.4338V203.925H82.2272ZM81.814 200.13C81.814 200.004 81.7905 199.888 81.7434 199.78C81.6964 199.669 81.6326 199.573 81.552 199.492C81.4713 199.411 81.3757 199.347 81.2647 199.299C81.1573 199.253 81.0414 199.229 80.9171 199.229H80.5039C80.3797 199.229 80.2622 199.253 80.1512 199.299C80.0438 199.347 79.9497 199.411 79.8691 199.492C79.7885 199.573 79.7246 199.669 79.6777 199.78C79.6306 199.888 79.6071 200.004 79.6071 200.13V202.538C79.6071 202.664 79.6306 202.781 79.6777 202.893C79.7246 203.001 79.7885 203.095 79.8691 203.176C79.9497 203.257 80.0438 203.321 80.1512 203.368C80.2622 203.415 80.3797 203.439 80.5039 203.439H80.9171C81.0414 203.439 81.1573 203.415 81.2647 203.368C81.3757 203.321 81.4713 203.257 81.552 203.176C81.6326 203.095 81.6964 203.001 81.7434 202.893C81.7905 202.781 81.814 202.664 81.814 202.538V200.13ZM87.1196 202.503C87.1196 202.712 87.0792 202.909 86.9987 203.095C86.9214 203.28 86.8139 203.443 86.6762 203.581C86.5384 203.719 86.3773 203.829 86.1924 203.909C86.0077 203.987 85.8113 204.027 85.6029 204.027H85.1899C84.9815 204.027 84.785 203.987 84.6003 203.909C84.4155 203.829 84.2543 203.719 84.1166 203.581C83.9789 203.443 83.8698 203.28 83.7891 203.095C83.7119 202.909 83.6732 202.712 83.6732 202.503V200.165C83.6732 199.955 83.7119 199.759 83.7891 199.573C83.8698 199.388 83.9789 199.225 84.1166 199.087C84.2543 198.949 84.4155 198.84 84.6003 198.764C84.785 198.682 84.9815 198.641 85.1899 198.641H85.6029C85.8113 198.641 86.0077 198.682 86.1924 198.764C86.3773 198.84 86.5384 198.949 86.6762 199.087C86.8139 199.225 86.9214 199.388 86.9987 199.573C87.0792 199.759 87.1196 199.955 87.1196 200.165V201.385H84.2929V202.538C84.2929 202.664 84.3165 202.781 84.3635 202.893C84.4106 203.001 84.4743 203.095 84.5549 203.176C84.6356 203.257 84.7296 203.321 84.8372 203.368C84.948 203.415 85.0655 203.439 85.1899 203.439H85.6029C85.7273 203.439 85.8431 203.415 85.9507 203.368C86.0615 203.321 86.1573 203.257 86.2378 203.176C86.3184 203.095 86.3823 203.001 86.4293 202.893C86.4763 202.781 86.4998 202.664 86.4998 202.538V202.194L87.1196 202.296V202.503ZM86.4998 200.13C86.4998 200.004 86.4763 199.888 86.4293 199.78C86.3823 199.669 86.3184 199.573 86.2378 199.492C86.1573 199.411 86.0615 199.347 85.9507 199.299C85.8431 199.253 85.7273 199.229 85.6029 199.229H85.1899C85.0655 199.229 84.948 199.253 84.8372 199.299C84.7296 199.347 84.6356 199.411 84.5549 199.492C84.4743 199.573 84.4106 199.669 84.3635 199.78C84.3165 199.888 84.2929 200.004 84.2929 200.13V200.899H86.4998V200.13ZM90.9438 203.925V196.668H91.5635V203.925H90.9438ZM96.2544 203.925L95.9118 203.409C95.7708 203.594 95.5944 203.745 95.3828 203.86C95.1711 203.971 94.9394 204.027 94.6875 204.027H94.5313C94.323 204.027 94.1264 203.987 93.9417 203.909C93.757 203.829 93.5957 203.719 93.4581 203.581C93.3203 203.443 93.2112 203.28 93.1306 203.095C93.0533 202.909 93.0147 202.712 93.0147 202.503V202.452C93.0147 202.243 93.0533 202.046 93.1306 201.86C93.2112 201.675 93.3203 201.513 93.4581 201.374C93.5957 201.237 93.757 201.128 93.9417 201.051C94.1264 200.969 94.323 200.929 94.5313 200.929H95.8412V200.13C95.8412 200.004 95.8177 199.888 95.7708 199.78C95.7237 199.669 95.6598 199.573 95.5792 199.492C95.4987 199.411 95.4029 199.347 95.2921 199.299C95.1845 199.253 95.0687 199.229 94.9444 199.229H94.5816C94.4574 199.229 94.3397 199.253 94.2289 199.299C94.1215 199.347 94.0274 199.411 93.9468 199.492C93.8662 199.573 93.8023 199.669 93.7553 199.78C93.7083 199.888 93.6848 200.004 93.6848 200.13V200.317L93.065 200.216V200.165C93.065 199.955 93.1036 199.759 93.1809 199.573C93.2615 199.388 93.3707 199.225 93.5084 199.087C93.6461 198.949 93.8074 198.84 93.9921 198.764C94.1769 198.682 94.3734 198.641 94.5816 198.641H94.9444C95.1527 198.641 95.3491 198.682 95.5339 198.764C95.7187 198.84 95.8799 198.949 96.0176 199.087C96.1553 199.225 96.2629 199.388 96.3401 199.573C96.4206 199.759 96.461 199.955 96.461 200.165V203.925H96.2544ZM95.8412 201.415H94.5313C94.407 201.415 94.2894 201.439 94.1786 201.485C94.071 201.533 93.977 201.599 93.8964 201.683C93.8157 201.764 93.752 201.86 93.7049 201.971C93.6579 202.079 93.6344 202.196 93.6344 202.321V202.538C93.6344 202.664 93.6579 202.781 93.7049 202.893C93.752 203.001 93.8157 203.095 93.8964 203.176C93.977 203.257 94.071 203.321 94.1786 203.368C94.2894 203.415 94.407 203.439 94.5313 203.439H94.9444C95.0687 203.439 95.1845 203.415 95.2921 203.368C95.4029 203.321 95.4987 203.257 95.5792 203.176C95.6598 203.095 95.7237 203.001 95.7708 202.893C95.8177 202.781 95.8412 202.664 95.8412 202.538V201.415ZM100.94 203.925L100.598 203.399C100.457 203.591 100.28 203.745 100.069 203.86C99.8569 203.971 99.6252 204.027 99.3733 204.027H99.2171C99.0088 204.027 98.8124 203.987 98.6276 203.909C98.4428 203.829 98.2816 203.719 98.1439 203.581C98.0062 203.443 97.897 203.28 97.8164 203.095C97.7391 202.909 97.7005 202.712 97.7005 202.503V198.743H98.3203V202.538C98.3203 202.664 98.3438 202.781 98.3907 202.893C98.4378 203.001 98.5016 203.095 98.5823 203.176C98.6628 203.257 98.7569 203.321 98.8644 203.368C98.9752 203.415 99.0928 203.439 99.2171 203.439H99.6302C99.7545 203.439 99.8704 203.415 99.9779 203.368C100.089 203.321 100.184 203.257 100.265 203.176C100.346 203.095 100.41 203.001 100.457 202.893C100.504 202.781 100.527 202.664 100.527 202.538V198.743H101.147V203.925H100.94ZM105.627 203.925L105.284 203.399C105.143 203.591 104.966 203.745 104.755 203.86C104.543 203.971 104.311 204.027 104.059 204.027H103.903C103.695 204.027 103.498 203.987 103.313 203.909C103.128 203.829 102.967 203.719 102.83 203.581C102.692 203.443 102.582 203.28 102.502 203.095C102.425 202.909 102.386 202.712 102.386 202.503V200.165C102.386 199.955 102.425 199.759 102.502 199.573C102.582 199.388 102.692 199.225 102.83 199.087C102.967 198.949 103.128 198.84 103.313 198.764C103.498 198.682 103.695 198.641 103.903 198.641H104.059C104.291 198.641 104.506 198.689 104.704 198.783C104.902 198.878 105.071 199.009 105.213 199.178V196.668H105.833V203.925H105.627ZM105.213 200.13C105.213 200.004 105.189 199.888 105.143 199.78C105.095 199.669 105.031 199.573 104.951 199.492C104.87 199.411 104.774 199.347 104.664 199.299C104.556 199.253 104.44 199.229 104.316 199.229H103.903C103.778 199.229 103.661 199.253 103.55 199.299C103.443 199.347 103.349 199.411 103.268 199.492C103.187 199.573 103.123 199.669 103.077 199.78C103.029 199.888 103.006 200.004 103.006 200.13V202.538C103.006 202.664 103.029 202.781 103.077 202.893C103.123 203.001 103.187 203.095 103.268 203.176C103.349 203.257 103.443 203.321 103.55 203.368C103.661 203.415 103.778 203.439 103.903 203.439H104.316C104.44 203.439 104.556 203.415 104.664 203.368C104.774 203.321 104.87 203.257 104.951 203.176C105.031 203.095 105.095 203.001 105.143 202.893C105.189 202.781 105.213 202.664 105.213 202.538V200.13ZM110.519 202.503C110.519 202.712 110.479 202.909 110.398 203.095C110.321 203.28 110.213 203.443 110.075 203.581C109.938 203.719 109.776 203.829 109.591 203.909C109.406 203.987 109.21 204.027 109.002 204.027H108.589C108.381 204.027 108.184 203.987 107.999 203.909C107.814 203.829 107.653 203.719 107.516 203.581C107.378 203.443 107.268 203.28 107.188 203.095C107.11 202.909 107.072 202.712 107.072 202.503V200.165C107.072 199.955 107.11 199.759 107.188 199.573C107.268 199.388 107.378 199.225 107.516 199.087C107.653 198.949 107.814 198.84 107.999 198.764C108.184 198.682 108.381 198.641 108.589 198.641H109.002C109.21 198.641 109.406 198.682 109.591 198.764C109.776 198.84 109.938 198.949 110.075 199.087C110.213 199.225 110.321 199.388 110.398 199.573C110.479 199.759 110.519 199.955 110.519 200.165V202.503ZM109.899 200.13C109.899 200.004 109.875 199.888 109.828 199.78C109.781 199.669 109.717 199.573 109.636 199.492C109.556 199.411 109.46 199.347 109.35 199.299C109.242 199.253 109.126 199.229 109.002 199.229H108.589C108.464 199.229 108.347 199.253 108.236 199.299C108.129 199.347 108.035 199.411 107.953 199.492C107.873 199.573 107.809 199.669 107.763 199.78C107.715 199.888 107.691 200.004 107.691 200.13V202.538C107.691 202.664 107.715 202.781 107.763 202.893C107.809 203.001 107.873 203.095 107.953 203.176C108.035 203.257 108.129 203.321 108.236 203.368C108.347 203.415 108.464 203.439 108.589 203.439H109.002C109.126 203.439 109.242 203.415 109.35 203.368C109.46 203.321 109.556 203.257 109.636 203.176C109.717 203.095 109.781 203.001 109.828 202.893C109.875 202.781 109.899 202.664 109.899 202.538V200.13ZM117.376 203.925L117.033 203.399C116.893 203.591 116.716 203.745 116.505 203.86C116.292 203.971 116.061 204.027 115.809 204.027H115.652C115.445 204.027 115.248 203.987 115.063 203.909C114.879 203.829 114.718 203.719 114.579 203.581C114.442 203.443 114.333 203.28 114.252 203.095C114.175 202.909 114.137 202.712 114.137 202.503V200.165C114.137 199.955 114.175 199.759 114.252 199.573C114.333 199.388 114.442 199.225 114.579 199.087C114.718 198.949 114.879 198.84 115.063 198.764C115.248 198.682 115.445 198.641 115.652 198.641H115.809C116.04 198.641 116.256 198.689 116.454 198.783C116.652 198.878 116.822 199.009 116.963 199.178V196.668H117.582V203.925H117.376ZM116.963 200.13C116.963 200.004 116.939 199.888 116.893 199.78C116.845 199.669 116.781 199.573 116.701 199.492C116.62 199.411 116.524 199.347 116.414 199.299C116.306 199.253 116.19 199.229 116.066 199.229H115.652C115.529 199.229 115.411 199.253 115.301 199.299C115.192 199.347 115.098 199.411 115.018 199.492C114.937 199.573 114.873 199.669 114.827 199.78C114.779 199.888 114.756 200.004 114.756 200.13V202.538C114.756 202.664 114.779 202.781 114.827 202.893C114.873 203.001 114.937 203.095 115.018 203.176C115.098 203.257 115.192 203.321 115.301 203.368C115.411 203.415 115.529 203.439 115.652 203.439H116.066C116.19 203.439 116.306 203.415 116.414 203.368C116.524 203.321 116.62 203.257 116.701 203.176C116.781 203.095 116.845 203.001 116.893 202.893C116.939 202.781 116.963 202.664 116.963 202.538V200.13ZM122.268 202.503C122.268 202.712 122.228 202.909 122.147 203.095C122.07 203.28 121.962 203.443 121.825 203.581C121.687 203.719 121.526 203.829 121.341 203.909C121.157 203.987 120.96 204.027 120.752 204.027H120.338C120.131 204.027 119.934 203.987 119.749 203.909C119.564 203.829 119.403 203.719 119.265 203.581C119.128 203.443 119.018 203.28 118.938 203.095C118.861 202.909 118.822 202.712 118.822 202.503V200.165C118.822 199.955 118.861 199.759 118.938 199.573C119.018 199.388 119.128 199.225 119.265 199.087C119.403 198.949 119.564 198.84 119.749 198.764C119.934 198.682 120.131 198.641 120.338 198.641H120.752C120.96 198.641 121.157 198.682 121.341 198.764C121.526 198.84 121.687 198.949 121.825 199.087C121.962 199.225 122.07 199.388 122.147 199.573C122.228 199.759 122.268 199.955 122.268 200.165V201.385H119.442V202.538C119.442 202.664 119.465 202.781 119.513 202.893C119.559 203.001 119.623 203.095 119.704 203.176C119.784 203.257 119.878 203.321 119.986 203.368C120.097 203.415 120.214 203.439 120.338 203.439H120.752C120.876 203.439 120.991 203.415 121.1 203.368C121.21 203.321 121.306 203.257 121.387 203.176C121.467 203.095 121.531 203.001 121.579 202.893C121.625 202.781 121.649 202.664 121.649 202.538V202.194L122.268 202.296V202.503ZM121.649 200.13C121.649 200.004 121.625 199.888 121.579 199.78C121.531 199.669 121.467 199.573 121.387 199.492C121.306 199.411 121.21 199.347 121.1 199.299C120.991 199.253 120.876 199.229 120.752 199.229H120.338C120.214 199.229 120.097 199.253 119.986 199.299C119.878 199.347 119.784 199.411 119.704 199.492C119.623 199.573 119.559 199.669 119.513 199.78C119.465 199.888 119.442 200.004 119.442 200.13V200.899H121.649V200.13ZM129.332 202.503C129.332 202.712 129.292 202.909 129.211 203.095C129.134 203.28 129.027 203.443 128.888 203.581C128.751 203.719 128.59 203.829 128.406 203.909C128.221 203.987 128.024 204.027 127.815 204.027H127.403C127.194 204.027 126.998 203.987 126.813 203.909C126.629 203.829 126.467 203.719 126.329 203.581C126.192 203.443 126.083 203.28 126.002 203.095C125.925 202.909 125.886 202.712 125.886 202.503V200.165C125.886 199.955 125.925 199.759 126.002 199.573C126.083 199.388 126.192 199.225 126.329 199.087C126.467 198.949 126.629 198.84 126.813 198.764C126.998 198.682 127.194 198.641 127.403 198.641H127.815C128.024 198.641 128.221 198.682 128.406 198.764C128.59 198.84 128.751 198.949 128.888 199.087C129.027 199.225 129.134 199.388 129.211 199.573C129.292 199.759 129.332 199.955 129.332 200.165V200.372L128.713 200.474V200.13C128.713 200.004 128.689 199.888 128.642 199.78C128.595 199.669 128.531 199.573 128.451 199.492C128.37 199.411 128.275 199.347 128.163 199.299C128.056 199.253 127.94 199.229 127.815 199.229H127.403C127.279 199.229 127.161 199.253 127.05 199.299C126.942 199.347 126.848 199.411 126.768 199.492C126.687 199.573 126.623 199.669 126.576 199.78C126.53 199.888 126.506 200.004 126.506 200.13V202.538C126.506 202.664 126.53 202.781 126.576 202.893C126.623 203.001 126.687 203.095 126.768 203.176C126.848 203.257 126.942 203.321 127.05 203.368C127.161 203.415 127.279 203.439 127.403 203.439H127.815C127.94 203.439 128.056 203.415 128.163 203.368C128.275 203.321 128.37 203.257 128.451 203.176C128.531 203.095 128.595 203.001 128.642 202.893C128.689 202.781 128.713 202.664 128.713 202.538V202.194L129.332 202.296V202.503ZM133.812 203.925L133.469 203.409C133.328 203.594 133.151 203.745 132.94 203.86C132.728 203.971 132.497 204.027 132.244 204.027H132.088C131.88 204.027 131.684 203.987 131.499 203.909C131.314 203.829 131.153 203.719 131.015 203.581C130.878 203.443 130.769 203.28 130.688 203.095C130.611 202.909 130.571 202.712 130.571 202.503V202.452C130.571 202.243 130.611 202.046 130.688 201.86C130.769 201.675 130.878 201.513 131.015 201.374C131.153 201.237 131.314 201.128 131.499 201.051C131.684 200.969 131.88 200.929 132.088 200.929H133.399V200.13C133.399 200.004 133.375 199.888 133.328 199.78C133.281 199.669 133.217 199.573 133.137 199.492C133.056 199.411 132.96 199.347 132.849 199.299C132.742 199.253 132.626 199.229 132.501 199.229H132.139C132.014 199.229 131.897 199.253 131.786 199.299C131.679 199.347 131.585 199.411 131.504 199.492C131.424 199.573 131.36 199.669 131.312 199.78C131.266 199.888 131.242 200.004 131.242 200.13V200.317L130.622 200.216V200.165C130.622 199.955 130.661 199.759 130.738 199.573C130.819 199.388 130.928 199.225 131.066 199.087C131.203 198.949 131.365 198.84 131.55 198.764C131.734 198.682 131.931 198.641 132.139 198.641H132.501C132.71 198.641 132.907 198.682 133.091 198.764C133.276 198.84 133.437 198.949 133.575 199.087C133.713 199.225 133.82 199.388 133.897 199.573C133.978 199.759 134.018 199.955 134.018 200.165V203.925H133.812ZM133.399 201.415H132.088C131.965 201.415 131.847 201.439 131.735 201.485C131.628 201.533 131.534 201.599 131.454 201.683C131.373 201.764 131.309 201.86 131.262 201.971C131.215 202.079 131.192 202.196 131.192 202.321V202.538C131.192 202.664 131.215 202.781 131.262 202.893C131.309 203.001 131.373 203.095 131.454 203.176C131.534 203.257 131.628 203.321 131.735 203.368C131.847 203.415 131.965 203.439 132.088 203.439H132.501C132.626 203.439 132.742 203.415 132.849 203.368C132.96 203.321 133.056 203.257 133.137 203.176C133.217 203.095 133.281 203.001 133.328 202.893C133.375 202.781 133.399 202.664 133.399 202.538V201.415ZM136.774 199.335C136.65 199.335 136.533 199.359 136.421 199.406C136.314 199.453 136.22 199.517 136.14 199.598C136.059 199.679 135.995 199.775 135.948 199.887C135.901 199.995 135.877 200.111 135.877 200.235V203.925H135.257V198.743H135.465L135.802 199.269C135.942 199.077 136.119 198.925 136.33 198.813C136.546 198.699 136.779 198.641 137.031 198.641H137.394V199.335H136.774ZM141.46 203.925L141.117 203.399C140.976 203.591 140.8 203.745 140.588 203.86C140.377 203.971 140.145 204.027 139.894 204.027H139.737C139.528 204.027 139.332 203.987 139.148 203.909C138.963 203.829 138.802 203.719 138.664 203.581C138.526 203.443 138.417 203.28 138.336 203.095C138.259 202.909 138.22 202.712 138.22 202.503V200.165C138.22 199.955 138.259 199.759 138.336 199.573C138.417 199.388 138.526 199.225 138.664 199.087C138.802 198.949 138.963 198.84 139.148 198.764C139.332 198.682 139.528 198.641 139.737 198.641H139.894C140.125 198.641 140.339 198.689 140.539 198.783C140.737 198.878 140.906 199.009 141.047 199.178V196.668H141.666V203.925H141.46ZM141.047 200.13C141.047 200.004 141.024 199.888 140.976 199.78C140.93 199.669 140.866 199.573 140.785 199.492C140.705 199.411 140.609 199.347 140.497 199.299C140.39 199.253 140.274 199.229 140.151 199.229H139.737C139.613 199.229 139.495 199.253 139.384 199.299C139.277 199.347 139.183 199.411 139.102 199.492C139.022 199.573 138.958 199.669 138.91 199.78C138.864 199.888 138.84 200.004 138.84 200.13V202.538C138.84 202.664 138.864 202.781 138.91 202.893C138.958 203.001 139.022 203.095 139.102 203.176C139.183 203.257 139.277 203.321 139.384 203.368C139.495 203.415 139.613 203.439 139.737 203.439H140.151C140.274 203.439 140.39 203.415 140.497 203.368C140.609 203.321 140.705 203.257 140.785 203.176C140.866 203.095 140.93 203.001 140.976 202.893C141.024 202.781 141.047 202.664 141.047 202.538V200.13ZM143.063 197.498V196.668H143.783V197.498H143.063ZM143.113 203.925V198.743H143.732V203.925H143.113ZM148.63 202.503C148.63 202.712 148.589 202.909 148.509 203.095C148.431 203.28 148.324 203.443 148.187 203.581C148.049 203.719 147.888 203.829 147.703 203.909C147.518 203.987 147.321 204.027 147.114 204.027H146.7C146.492 204.027 146.295 203.987 146.111 203.909C145.926 203.829 145.765 203.719 145.627 203.581C145.49 203.443 145.38 203.28 145.3 203.095C145.222 202.909 145.184 202.712 145.184 202.503V200.165C145.184 199.955 145.222 199.759 145.3 199.573C145.38 199.388 145.49 199.225 145.627 199.087C145.765 198.949 145.926 198.84 146.111 198.764C146.295 198.682 146.492 198.641 146.7 198.641H147.114C147.321 198.641 147.518 198.682 147.703 198.764C147.888 198.84 148.049 198.949 148.187 199.087C148.324 199.225 148.431 199.388 148.509 199.573C148.589 199.759 148.63 199.955 148.63 200.165V202.503ZM148.01 200.13C148.01 200.004 147.987 199.888 147.939 199.78C147.893 199.669 147.829 199.573 147.748 199.492C147.668 199.411 147.572 199.347 147.462 199.299C147.353 199.253 147.238 199.229 147.114 199.229H146.7C146.576 199.229 146.459 199.253 146.347 199.299C146.24 199.347 146.146 199.411 146.065 199.492C145.985 199.573 145.921 199.669 145.873 199.78C145.827 199.888 145.803 200.004 145.803 200.13V202.538C145.803 202.664 145.827 202.781 145.873 202.893C145.921 203.001 145.985 203.095 146.065 203.176C146.146 203.257 146.24 203.321 146.347 203.368C146.459 203.415 146.576 203.439 146.7 203.439H147.114C147.238 203.439 147.353 203.415 147.462 203.368C147.572 203.321 147.668 203.257 147.748 203.176C147.829 203.095 147.893 203.001 147.939 202.893C147.987 202.781 148.01 202.664 148.01 202.538V200.13ZM150.076 203.925V196.668H150.695V203.925H150.076ZM155.493 202.503C155.493 202.712 155.452 202.909 155.372 203.095C155.295 203.28 155.187 203.443 155.049 203.581C154.912 203.719 154.75 203.829 154.565 203.909C154.38 203.987 154.184 204.027 153.976 204.027H153.563C153.355 204.027 153.158 203.987 152.973 203.909C152.788 203.829 152.627 203.719 152.49 203.581C152.352 203.443 152.242 203.28 152.162 203.095C152.084 202.909 152.046 202.712 152.046 202.503V200.165C152.046 199.955 152.084 199.759 152.162 199.573C152.242 199.388 152.352 199.225 152.49 199.087C152.627 198.949 152.788 198.84 152.973 198.764C153.158 198.682 153.355 198.641 153.563 198.641H153.976C154.184 198.641 154.38 198.682 154.565 198.764C154.75 198.84 154.912 198.949 155.049 199.087C155.187 199.225 155.295 199.388 155.372 199.573C155.452 199.759 155.493 199.955 155.493 200.165V202.503ZM154.873 200.13C154.873 200.004 154.849 199.888 154.802 199.78C154.755 199.669 154.691 199.573 154.61 199.492C154.53 199.411 154.434 199.347 154.324 199.299C154.216 199.253 154.1 199.229 153.976 199.229H153.563C153.438 199.229 153.321 199.253 153.21 199.299C153.103 199.347 153.009 199.411 152.927 199.492C152.847 199.573 152.783 199.669 152.737 199.78C152.689 199.888 152.665 200.004 152.665 200.13V202.538C152.665 202.664 152.689 202.781 152.737 202.893C152.783 203.001 152.847 203.095 152.927 203.176C153.009 203.257 153.103 203.321 153.21 203.368C153.321 203.415 153.438 203.439 153.563 203.439H153.976C154.1 203.439 154.216 203.415 154.324 203.368C154.434 203.321 154.53 203.257 154.61 203.176C154.691 203.095 154.755 203.001 154.802 202.893C154.849 202.781 154.873 202.664 154.873 202.538V200.13ZM160.229 204.578C160.229 204.787 160.189 204.979 160.107 205.155C160.031 205.33 159.923 205.481 159.785 205.605C159.647 205.731 159.486 205.826 159.301 205.893C159.117 205.965 158.921 206 158.712 206H158.455C158.247 206 158.051 205.965 157.866 205.893C157.681 205.826 157.519 205.731 157.382 205.605C157.244 205.481 157.135 205.33 157.054 205.155C156.978 204.979 156.938 204.787 156.938 204.578V204.557C156.938 204.355 156.976 204.17 157.05 204.001C157.123 203.832 157.224 203.686 157.352 203.56C157.19 203.463 157.061 203.331 156.964 203.166C156.869 202.997 156.823 202.812 156.823 202.609C156.823 202.427 156.861 202.258 156.938 202.103C157.016 201.944 157.122 201.816 157.256 201.718C157.094 201.576 156.967 201.407 156.873 201.208C156.778 201.009 156.732 200.791 156.732 200.555V200.165C156.732 199.955 156.77 199.759 156.848 199.573C156.928 199.388 157.037 199.225 157.176 199.087C157.313 198.949 157.474 198.84 157.659 198.764C157.843 198.682 158.04 198.641 158.249 198.641H158.506C158.758 198.641 158.989 198.699 159.2 198.813C159.416 198.925 159.593 199.077 159.735 199.269L160.072 198.743H160.279V200.555C160.279 200.764 160.238 200.961 160.158 201.146C160.08 201.332 159.973 201.495 159.836 201.632C159.698 201.771 159.537 201.88 159.352 201.961C159.167 202.039 158.971 202.078 158.763 202.078H157.866C157.795 202.078 157.728 202.093 157.664 202.124C157.6 202.151 157.543 202.188 157.493 202.235C157.446 202.282 157.409 202.339 157.382 202.407C157.355 202.471 157.342 202.538 157.342 202.609C157.342 202.68 157.355 202.748 157.382 202.812C157.409 202.876 157.446 202.933 157.493 202.984C157.543 203.031 157.6 203.068 157.664 203.095C157.728 203.122 157.795 203.135 157.866 203.135H158.712C158.921 203.135 159.117 203.171 159.301 203.242C159.486 203.309 159.647 203.406 159.785 203.53C159.923 203.656 160.031 203.805 160.107 203.981C160.189 204.156 160.229 204.349 160.229 204.557V204.578ZM159.665 200.13C159.665 200.004 159.641 199.888 159.593 199.78C159.547 199.669 159.481 199.573 159.397 199.492C159.317 199.411 159.221 199.347 159.111 199.299C159.002 199.253 158.887 199.229 158.763 199.229H158.249C158.124 199.229 158.006 199.253 157.896 199.299C157.789 199.347 157.695 199.411 157.613 199.492C157.533 199.573 157.469 199.669 157.422 199.78C157.375 199.888 157.352 200.004 157.352 200.13V200.59C157.352 200.715 157.375 200.833 157.422 200.944C157.469 201.052 157.533 201.146 157.613 201.227C157.695 201.309 157.789 201.372 157.896 201.42C158.006 201.468 158.124 201.49 158.249 201.49H158.763C158.887 201.49 159.002 201.468 159.111 201.42C159.221 201.372 159.317 201.309 159.397 201.227C159.481 201.146 159.547 201.052 159.593 200.944C159.641 200.833 159.665 200.715 159.665 200.59V200.13ZM159.639 204.527C159.639 204.403 159.616 204.29 159.569 204.188C159.521 204.091 159.458 204.008 159.377 203.941C159.296 203.873 159.2 203.82 159.09 203.783C158.983 203.746 158.867 203.728 158.742 203.728H158.425C158.3 203.728 158.183 203.746 158.072 203.783C157.965 203.82 157.87 203.873 157.79 203.941C157.709 204.008 157.645 204.091 157.599 204.188C157.551 204.29 157.528 204.403 157.528 204.527V204.608C157.528 204.733 157.551 204.844 157.599 204.942C157.645 205.04 157.709 205.123 157.79 205.191C157.87 205.261 157.965 205.315 158.072 205.352C158.183 205.39 158.3 205.408 158.425 205.408H158.742C158.867 205.408 158.983 205.39 159.09 205.352C159.2 205.315 159.296 205.261 159.377 205.191C159.458 205.123 159.521 205.04 159.569 204.942C159.616 204.844 159.639 204.733 159.639 204.608V204.527ZM161.574 197.498V196.668H162.295V197.498H161.574ZM161.624 203.925V198.743H162.244V203.925H161.624ZM166.935 203.925L166.593 203.409C166.451 203.594 166.275 203.745 166.063 203.86C165.852 203.971 165.62 204.027 165.368 204.027H165.212C165.004 204.027 164.807 203.987 164.622 203.909C164.437 203.829 164.276 203.719 164.139 203.581C164.001 203.443 163.891 203.28 163.811 203.095C163.733 202.909 163.695 202.712 163.695 202.503V202.452C163.695 202.243 163.733 202.046 163.811 201.86C163.891 201.675 164.001 201.513 164.139 201.374C164.276 201.237 164.437 201.128 164.622 201.051C164.807 200.969 165.004 200.929 165.212 200.929H166.522V200.13C166.522 200.004 166.498 199.888 166.451 199.78C166.404 199.669 166.34 199.573 166.259 199.492C166.179 199.411 166.083 199.347 165.973 199.299C165.865 199.253 165.75 199.229 165.625 199.229H165.263C165.138 199.229 165.02 199.253 164.91 199.299C164.802 199.347 164.707 199.411 164.627 199.492C164.547 199.573 164.483 199.669 164.436 199.78C164.389 199.888 164.365 200.004 164.365 200.13V200.317L163.746 200.216V200.165C163.746 199.955 163.784 199.759 163.861 199.573C163.942 199.388 164.051 199.225 164.188 199.087C164.327 198.949 164.488 198.84 164.672 198.764C164.857 198.682 165.054 198.641 165.263 198.641H165.625C165.833 198.641 166.029 198.682 166.214 198.764C166.399 198.84 166.561 198.949 166.698 199.087C166.836 199.225 166.944 199.388 167.021 199.573C167.101 199.759 167.142 199.955 167.142 200.165V203.925H166.935ZM166.522 201.415H165.212C165.087 201.415 164.97 201.439 164.859 201.485C164.752 201.533 164.658 201.599 164.576 201.683C164.496 201.764 164.432 201.86 164.386 201.971C164.338 202.079 164.315 202.196 164.315 202.321V202.538C164.315 202.664 164.338 202.781 164.386 202.893C164.432 203.001 164.496 203.095 164.576 203.176C164.658 203.257 164.752 203.321 164.859 203.368C164.97 203.415 165.087 203.439 165.212 203.439H165.625C165.75 203.439 165.865 203.415 165.973 203.368C166.083 203.321 166.179 203.257 166.259 203.176C166.34 203.095 166.404 203.001 166.451 202.893C166.498 202.781 166.522 202.664 166.522 202.538V201.415Z" fill="black"/>
</svg>
